# xmcd
#
# Track frame offsets: 
#        150
#        6652
#        30435
#        56546
#        75274
#
# Disc length: 1140 seconds
#
# Revision: 0
# Processed by: cddbd v1.5.2PL0 Copyright (c) Steve Scherf et al.
# Submitted via: ExactAudioCopy v0.95b3
#
DISCID=2e047205
DTITLE=Mise en Scene - Neo~ylo
DYEAR=2007
DGENRE=Electronic
TTITLE0=Fog:Water
TTITLE1=D:Great
TTITLE2=Neo~ylo
TTITLE3=Prepare:Archive
TTITLE4=Water
EXTD=
EXTT0=
EXTT1=
EXTT2=
EXTT3=
EXTT4=
PLAYORDER=
